<svg width="18" height="12" viewBox="0 0 18 12" fill="none" xmlns="http://www.w3.org/2000/svg">
<path d="M1 5C0.447715 5 -2.42698e-07 5.44772 -2.18557e-07 6C-1.94416e-07 6.55228 0.447715 7 1 7L1 5ZM17 6L17.6891 6.72471C17.8876 6.53593 18 6.27396 18 6C18 5.72603 17.8876 5.46407 17.6891 5.27529L17 6ZM12.4303 0.275289C12.0301 -0.105265 11.3971 -0.0893006 11.0165 0.310946C10.636 0.711193 10.652 1.34416 11.0522 1.72471L12.4303 0.275289ZM11.0522 10.2753C10.652 10.6558 10.636 11.2888 11.0165 11.6891C11.3971 12.0893 12.0301 12.1053 12.4303 11.7247L11.0522 10.2753ZM1 7L17 7L17 5L1 5L1 7ZM17.6891 5.27529L12.4303 0.275289L11.0522 1.72471L16.3109 6.72471L17.6891 5.27529ZM16.3109 5.27529L11.0522 10.2753L12.4303 11.7247L17.6891 6.72471L16.3109 5.27529Z" fill="#CB4C1F"/>
</svg>
